<svg xmlns="http://www.w3.org/2000/svg" width="206.887" height="53.501" viewBox="0 0 206.887 53.501">
  <g id="about" transform="translate(-72.227 -23.055)">
    <path id="Path_1" data-name="Path 1" d="M-390.714-44.117V-4.946H-380.5v-29.28s-.07-4.754-2.624-7.268S-390.714-44.117-390.714-44.117Z" transform="translate(493 81)" fill="none" stroke="#707070" stroke-width="1"/>
    <path id="Path_2" data-name="Path 2" d="M-390.714-33.761h-29.558V-44.117h29.558Z" transform="translate(493 81)" fill="none" stroke="#707070" stroke-width="1"/>
    <path id="Path_3" data-name="Path 3" d="M-390.714-29.721h-29.419v14.559s-.2,5.178,2.322,7.732,7.755,2.484,7.755,2.484h19.342V-15.162h-19.342V-20.6h19.342Z" transform="translate(493 81)" fill="none" stroke="#707070" stroke-width="1"/>
    <path id="Path_4" data-name="Path 4" d="M-374.925-56.981V-4.806h10.379V-56.981Z" transform="translate(493 80.536)" fill="none" stroke="#707070" stroke-width="1"/>
    <path id="Path_5" data-name="Path 5" d="M-364.546-44.117h20.9s4.539,1.109,6.664,3.854,1.834,7.128,1.834,7.128v17.809s-.54,5.056-3.088,7.57-7.105,2.484-7.105,2.484h-19.2V-15.325h19.2v-18.9h-19.2Z" transform="translate(493 81)" fill="none" stroke="#707070" stroke-width="1"/>
    <path id="Path_6" data-name="Path 6" d="M-319.361-44.117V-5.108s-5.666-.093-8.336-2.647-2.345-7.57-2.345-7.57V-35.619s.743-4.516,3.413-6.641S-319.361-44.117-319.361-44.117Z" transform="translate(493 80.837)" fill="none" stroke="#707070" stroke-width="1"/>
    <path id="Path_7" data-name="Path 7" d="M-319.361-33.761h18.9v18.6h-18.9v9.891h18.9s5.137.151,7.732-2.322,2.647-7.57,2.647-7.57v-18.6s-.052-5.1-2.647-7.732-7.732-2.786-7.732-2.786h-18.9Z" transform="translate(493 81)" fill="none" stroke="#707070" stroke-width="1"/>
    <path id="Path_8" data-name="Path 8" d="M-284.973-44.117v29.86s.581,4.8,3.251,7.128,7.43,1.858,7.43,1.858V-44.117Z" transform="translate(493 81)" fill="none" stroke="#707070" stroke-width="1"/>
    <path id="Path_9" data-name="Path 9" d="M-255.577-44.117v28.792h-18.576V-5.271h18.576s4.957.354,7.593-2.159,2.949-7.895,2.949-7.895V-44.117Z" transform="translate(493 81)" fill="none" stroke="#707070" stroke-width="1"/>
    <path id="Path_10" data-name="Path 10" d="M-239.625-55.727v41.47s.075,4.487,2.786,6.966,8.057,3.085,8.057,3.085v-51.52Z" transform="translate(492.672 79.967)" fill="none" stroke="#707070" stroke-width="1"/>
    <path id="Path_11" data-name="Path 11" d="M-228.781-44.117h14.4v10.356h-14.4Z" transform="translate(493 81)" fill="none" stroke="#707070" stroke-width="1"/>
    <path id="Path_12" data-name="Path 12" d="M-228.781-15.325h14.234V-5.108h-14.234Z" transform="translate(493 81)" fill="none" stroke="#707070" stroke-width="1"/>
  </g>
</svg>
