<svg xmlns="http://www.w3.org/2000/svg" width="323.385" height="58.148" viewBox="0 0 323.385 58.148">
  <g id="contact" transform="translate(-14.068 -21.108)">
    <path id="Path_1" data-name="Path 1" d="M126.726,50.614s-5.414-.063-8.453-2.557-3.7-7.183-3.7-7.183V15.01a11.3,11.3,0,0,1,3.7-6.018c3.039-2.494,8.453-2.557,8.453-2.557Z" transform="translate(-100 28)" fill="none" stroke="#707070" stroke-width="1"/>
    <path id="Path_2" data-name="Path 2" d="M159.425,39.013h-32.7V50.492h32.7Z" transform="translate(-100 28)" fill="none" stroke="#707070" stroke-width="1"/>
    <path id="Path_3" data-name="Path 3" d="M159.425,6.435H126.848V18.263h32.577Z" transform="translate(-100 28)" fill="none" stroke="#707070" stroke-width="1"/>
    <path id="Path_5" data-name="Path 5" d="M178.923,18.263h21.2V38.891h-21.2V50.614h21.2s5.631-.774,8.592-3.7,3.253-8.018,3.253-8.018V18.263s-.291-5.514-3.253-8.47-8.592-3.357-8.592-3.357h-21.2Z" transform="translate(-100 28)" fill="none" stroke="#707070" stroke-width="1"/>
    <path id="Path_6" data-name="Path 6" d="M178.923,6.435s-5.288.317-8.244,3.131-3.583,8.123-3.583,8.123v21.2s.626,5.718,3.583,8.592,8.244,3.131,8.244,3.131Z" transform="translate(-100 28)" fill="none" stroke="#707070" stroke-width="1"/>
    <path id="Path_7" data-name="Path 7" d="M217.988,6.435V50.614h11.706V6.435Z" transform="translate(-100 28)" fill="none" stroke="#707070" stroke-width="1"/>
    <path id="Path_8" data-name="Path 8" d="M229.693,6.435h21.585s5.548-.1,8.8,3.6,2.661,8.8,2.661,8.8V50.492H251.278V18.141H229.693Z" transform="translate(-100 28)" fill="none" stroke="#707070" stroke-width="1"/>
    <path id="Path_9" data-name="Path 9" d="M-11.012-25.392V19.672s-.079,5.4,2.713,8.3,8.457,3.6,8.457,3.6V-25.392Z" transform="translate(182 47)" fill="none" stroke="#707070" stroke-width="1"/>
    <path id="Path_10" data-name="Path 10" d="M.158-12.565H16.732V-.837H.158Z" transform="translate(182 47)" fill="none" stroke="#707070" stroke-width="1"/>
    <path id="Path_11" data-name="Path 11" d="M.158,19.966H16.732v11.6H.158Z" transform="translate(182 47)" fill="none" stroke="#707070" stroke-width="1"/>
    <path id="Path_12" data-name="Path 12" d="M58.947-12.565v44.13H70.388V-1.741s-.011-5.276-2.872-7.982S58.947-12.565,58.947-12.565Z" transform="translate(182 47)" fill="none" stroke="#707070" stroke-width="1"/>
    <path id="Path_13" data-name="Path 13" d="M58.947-.837H25.618V-12.594H58.947Z" transform="translate(182 47)" fill="none" stroke="#707070" stroke-width="1"/>
    <path id="Path_14" data-name="Path 14" d="M58.947,4.138H25.483V21.933s.808,4.567,3.6,6.942,7.552,2.555,7.552,2.555H58.947V19.966H36.63V13.793H58.947Z" transform="translate(182 47)" fill="none" stroke="#707070" stroke-width="1"/>
    <path id="Path_15" data-name="Path 15" d="M87.278-12.565s-5.116.323-7.982,3.294S75.815-.678,75.815-.678v22s.616,5.127,3.482,7.688,7.982,2.555,7.982,2.555Z" transform="translate(182 47)" fill="none" stroke="#707070" stroke-width="1"/>
    <path id="Path_16" data-name="Path 16" d="M87.278-.837h33.17V-12.594H87.278Z" transform="translate(182 47)" fill="none" stroke="#707070" stroke-width="1"/>
    <path id="Path_17" data-name="Path 17" d="M87.278,19.966h33.306v11.6H87.278Z" transform="translate(182 47)" fill="none" stroke="#707070" stroke-width="1"/>
    <path id="Path_18" data-name="Path 18" d="M126.916-25.392V20.259s.339,5.472,3.166,8.3,8.14,3.166,8.14,3.166V-25.392Z" transform="translate(182 47)" fill="none" stroke="#707070" stroke-width="1"/>
    <path id="Path_19" data-name="Path 19" d="M138.221-12.565h16.732V-.837H138.221Z" transform="translate(182 47)" fill="none" stroke="#707070" stroke-width="1"/>
    <path id="Path_20" data-name="Path 20" d="M138.221,19.966h16.6V31.723h-16.6Z" transform="translate(182 47)" fill="none" stroke="#707070" stroke-width="1"/>
  </g>
</svg>
