<svg xmlns="http://www.w3.org/2000/svg" width="926.784" height="118.643" viewBox="0 0 926.784 118.643">
  <g id="name" transform="translate(-496.608 -169.672)">
    <g id="t-z">
      <path id="Path_1" data-name="Path 1" d="M-448.921-7.638v22.5h86.6v-22.5Z" transform="translate(948.291 208)" fill="none" stroke="#000" stroke-width="5"/>
      <path id="Path_2" data-name="Path 2" d="M-367.823-7.863l-81.36,62.67V77.766h5.5l81.36-62.9V-7.863Z" transform="translate(948.291 208)" fill="none" stroke="#000" stroke-width="5"/>
      <path id="Path_3" data-name="Path 3" d="M-448.921,54.926h86.864V77.766h-86.864Z" transform="translate(948.291 208)" fill="none" stroke="#000" stroke-width="5"/>
    </g>
    <g id="t-u">
      <path id="Path_4" data-name="Path 4" d="M-346.332-7.638V55.525s1.186,10.922,6.737,16.341,15.466,5.334,15.466,5.334V-7.638Z" transform="translate(948.291 208)" fill="none" stroke="#000" stroke-width="5"/>
      <path id="Path_5" data-name="Path 5" d="M-346.332,55.788s.69,9.6,5.623,14.962,14.109,6.492,14.109,6.492h47.019s9.315-1.215,14.248-6.578,5.6-14.876,5.6-14.876Z" transform="translate(948.291 208)" fill="none" stroke="#000" stroke-width="5"/>
      <path id="Path_6" data-name="Path 6" d="M-282.285-7.638V77.2s10.245-.213,15.919-5.573,6.776-15.867,6.776-15.867v-63.4Z" transform="translate(948.291 208)" fill="none" stroke="#000" stroke-width="5"/>
    </g>
    <g id="t-r1">
      <path id="Path_7" data-name="Path 7" d="M-175.672-7.638h-46.6s-9.927.48-15.383,6.123S-244.1,14.936-244.1,14.936h68.427Z" transform="translate(948.291 208)" fill="none" stroke="#000" stroke-width="5"/>
      <path id="Path_7-2" data-name="Path 7" d="M-244.1,14.936v62.6h22.554l.017-85.223s-10.206.212-15.848,5.867S-244.1,14.936-244.1,14.936Z" transform="translate(948.291 208)" fill="none" stroke="#000" stroke-width="5"/>
    </g>
    <g id="t-a1">
      <path id="Path_8" data-name="Path 8" d="M-118.731-7.638V14.707H-32.6s-.085-9.751-5.113-15.338-15-7.007-15-7.007Z" transform="translate(948.291 208)" fill="none" stroke="#000" stroke-width="5"/>
      <path id="Path_9" data-name="Path 9" d="M-54.654,14.707V77.643H-32.6V14.707Z" transform="translate(948.291 208)" fill="none" stroke="#000" stroke-width="5"/>
      <path id="Path_10" data-name="Path 10" d="M-32.641,23.458h-86.167v36.3s2.1,8.444,7.38,12.9S-97.668,77.6-97.668,77.6h65.028Z" transform="translate(948.291 208)" fill="none" stroke="#000" stroke-width="5"/>
    </g>
    <g id="t-f1">
      <path id="Path_11" data-name="Path 11" d="M38.759,78.172H5.247S-4.262,79.26-9.5,84.942-15.717,100.9-15.717,100.9H38.759Z" transform="translate(947.291 94)" fill="none" stroke="#000" stroke-width="5"/>
      <path id="Path_12" data-name="Path 12" d="M-15.717,100.9v90.914H7.326V100.9Z" transform="translate(947.291 94)" fill="none" stroke="#000" stroke-width="5"/>
      <path id="Path_13" data-name="Path 13" d="M38.759,106.362h-54.7v22.586h54.7Z" transform="translate(947.291 94)" fill="none" stroke="#000" stroke-width="5"/>
    </g>
    <g id="t-f2">
      <path id="Path_14" data-name="Path 14" d="M103.246,78.172h-32.4s-10.186,1-15.547,6.6-5.9,15.813-5.9,15.813h53.847Z" transform="translate(947.291 94)" fill="none" stroke="#000" stroke-width="5"/>
      <path id="Path_15" data-name="Path 15" d="M49.4,100.586V191.67H71.813V100.586Z" transform="translate(947.291 94)" fill="none" stroke="#000" stroke-width="5"/>
      <path id="Path_16" data-name="Path 16" d="M103.246,106.362H49.563v22.586h53.683Z" transform="translate(947.291 94)" fill="none" stroke="#000" stroke-width="5"/>
    </g>
    <g id="t-r2">
      <path id="Path_17" data-name="Path 17" d="M182.627,106.362H134.268s-9.914,1.592-14.991,7.281-5.319,15.475-5.319,15.475h68.669Z" transform="translate(947.291 94)" fill="none" stroke="#000" stroke-width="5"/>
      <path id="Path_18" data-name="Path 18" d="M113.957,129.118V191.67h22.584V129.118Z" transform="translate(947.291 94)" fill="none" stroke="#000" stroke-width="5"/>
    </g>
    <g id="t-i">
      <path id="Path_19" data-name="Path 19" d="M216.961,78.172H194.885V100.9h22.076Z" transform="translate(947.291 94)" fill="none" stroke="#000" stroke-width="5"/>
      <path id="Path_20" data-name="Path 20" d="M194.885,106.362v84.969H217.3V106.362Z" transform="translate(947.291 94)" fill="none" stroke="#000" stroke-width="5"/>
    </g>
    <g id="t-s">
      <path id="Path_21" data-name="Path 21" d="M320.134,132.019s1.136-10.554-3.7-16.926-15.644-8.559-15.644-8.559H252.6s-8.783,1.414-13.54,6.939-5.489,15.16-5.489,15.16h64.317v3.385Z" transform="translate(947.291 94)" fill="none" stroke="#000" stroke-width="5"/>
      <path id="Path_22" data-name="Path 22" d="M233.572,128.634v12.573s1.541,8.529,6.456,13.2,13.2,5.489,13.2,5.489h44.345v9.019h22.559V158.762s-.036-8.807-4.836-14-14.363-6.77-14.363-6.77H255.962v-9.357Z" transform="translate(947.291 94)" fill="none" stroke="#000" stroke-width="5"/>
      <path id="Path_23" data-name="Path 23" d="M255.962,166.185h-22.39v4.836s1,9.309,6.117,14.508,14.338,6.287,14.338,6.287h45.626s10.693-1.977,15.813-7.737,4.667-15.306,4.667-15.306H255.962Z" transform="translate(947.291 94)" fill="none" stroke="#000" stroke-width="5"/>
    </g>
    <g id="t-a2">
      <path id="Path_24" data-name="Path 24" d="M335.609,106.534v22.245H422s-.387-10.059-5.465-15.62-14.846-6.625-14.846-6.625Z" transform="translate(947.291 94)" fill="none" stroke="#000" stroke-width="5"/>
      <path id="Path_25" data-name="Path 25" d="M399.612,128.779v62.89H422v-62.89Z" transform="translate(947.291 94)" fill="none" stroke="#000" stroke-width="5"/>
      <path id="Path_26" data-name="Path 26" d="M422,137.991H335.609V172.64s1.275,9.267,6.915,14.024,15.644,5.005,15.644,5.005H422V137.991Z" transform="translate(947.291 94)" fill="none" stroke="#000" stroke-width="5"/>
    </g>
    <g id="t-l">
      <path id="Path_27" data-name="Path 27" d="M433.463,78.172v91.084s1.523,11.364,7.085,16.926,15.16,5.319,15.16,5.319V78.172Z" transform="translate(947.291 94)" fill="none" stroke="#000" stroke-width="5"/>
      <path id="Path_28" data-name="Path 28" d="M473.6,168.917H433.463s1.209,11.449,6.77,17.095,15.475,5.489,15.475,5.489H473.6Z" transform="translate(947.291 94)" fill="none" stroke="#000" stroke-width="5"/>
    </g>
  </g>
</svg>
